<?xml version="1.0" encoding="UTF-8"?>
<svg width="24px" height="24px" viewBox="0 0 24 24" version="1.1" xmlns="http://www.w3.org/2000/svg" xmlns:xlink="http://www.w3.org/1999/xlink">
    <!-- Generator: Sketch 43.2 (39069) - http://www.bohemiancoding.com/sketch -->
    <title>account</title>
    <desc>Created with Sketch.</desc>
    <defs></defs>
    <g id="Page-1" stroke="none" stroke-width="1" fill="none" fill-rule="evenodd">
        <g id="account" fill-rule="nonzero" fill="#FFFFFF">
            <path d="M12,1 C5.93625,1 1,5.93625 1,12 C1,15.3275 2.491875,18.304375 4.829375,20.325625 C5.22125,20.6625 5.63375,20.971875 6.066875,21.246875 C7.77875,22.35375 9.81375,23 12,23 C14.18625,23 16.214375,22.35375 17.933125,21.246875 C18.36625,20.971875 18.77875,20.6625 19.170625,20.325625 C21.508125,18.304375 23,15.3275 23,12 C23,5.93625 18.06375,1 12,1 Z M18.689375,18.909375 C18.345625,19.239375 17.974375,19.54875 17.5825,19.82375 C16.73,17.589375 14.550625,15.9875 12,15.9875 C9.449375,15.9875 7.27,17.589375 6.4175,19.82375 C6.025625,19.54875 5.654375,19.239375 5.310625,18.909375 C3.5025,17.15625 2.375,14.70875 2.375,12 C2.375,6.6925 6.6925,2.375 12,2.375 C17.3075,2.375 21.625,6.6925 21.625,12 C21.625,14.70875 20.4975,17.15625 18.689375,18.909375 Z" id="Shape"></path>
            <path d="M15.5,11 C15.5,12.9363426 13.9302059,14.5 12,14.5 C10.0697941,14.5 8.5,12.9363426 8.5,11 C8.5,9.07175926 10.0697941,7.5 12,7.5 C13.9302059,7.5 15.5,9.07175926 15.5,11 Z" id="Shape"></path>
        </g>
    </g>
</svg>