<?xml version="1.0" encoding="UTF-8"?>
<svg width="46px" height="30px" viewBox="0 0 46 30" version="1.1" xmlns="http://www.w3.org/2000/svg" xmlns:xlink="http://www.w3.org/1999/xlink">
    <!-- Generator: Sketch 43.2 (39069) - http://www.bohemiancoding.com/sketch -->
    <title>american-express-2</title>
    <desc>Created with Sketch.</desc>
    <defs></defs>
    <g id="Page-1" stroke="none" stroke-width="1" fill="none" fill-rule="evenodd">
        <g id="american-express-2" fill="#0062E8">
            <g id="Group" transform="translate(9.000000, 2.000000)">
                <path d="M25.8030303,19.090303 L25.7045455,19.0855758 L23.6442424,19.0855758 L23.6442424,18.947697 C23.4110303,19.0422424 23.1620606,19.0895152 22.9225455,19.0895152 L22.8248485,19.084 L21.6052121,19.084 L21.6052121,19.090303 L18.6553939,19.090303 L18.6553939,19.0958182 L16.6518182,19.0958182 L16.6518182,18.5001818 L16.6541818,17.9959394 L16.5226061,17.9959394 L16.5226061,19.0966061 L14.4969697,19.0966061 L14.4969697,17.9045455 C14.163697,18.0384848 13.7823636,18.0715758 13.4199394,18.0715758 L13.2253333,18.0715758 L13.2253333,19.0918788 L10.8333333,19.0918788 L10.2345455,18.4418788 L9.63260606,19.0926667 L5.72,19.0926667 L5.72,14.7254545 L9.56484848,14.7254545 C9.56484848,14.7254545 9.99030303,15.1847879 10.2369091,15.4487273 C10.484303,15.1863636 10.9113333,14.7301818 10.9113333,14.7301818 L11.1752727,14.7301818 L11.8000606,14.7254545 L13.7595152,14.7254545 C13.8729697,14.7175758 14.1723636,14.7152121 14.4922424,14.8357576 L14.4922424,14.7333333 L17.056,14.7333333 C17.1820606,14.7254545 17.5082424,14.7175758 17.8470303,14.8562424 L17.8470303,14.7333333 L21.6028485,14.7333333 L21.6028485,14.8593939 C21.9573939,14.7175758 22.2851515,14.7254545 22.3355758,14.7309697 L24.4730909,14.7293939 L24.4730909,14.8649091 C24.8315758,14.7183636 25.1648485,14.7270303 25.213697,14.7309697 L26.7532121,14.7293939 L26.7532121,0.338787879 L0.462484848,0.338787879 L0.462484848,11.4620606 L1.3630303,9.35842424 L3.31539394,9.35842424 L3.54860606,9.90757576 L3.54860606,9.35763636 L5.83581818,9.35763636 L6.34006061,10.4653939 L6.84430303,9.35763636 L13.9068485,9.35763636 C14.0329091,9.34818182 14.3598788,9.34187879 14.6986667,9.48054545 L14.6986667,9.35763636 L16.7313939,9.35763636 L16.7313939,9.62078788 C17.0276364,9.43957576 17.368,9.34739394 17.7099394,9.33242424 C17.7099394,9.33242424 18.7987879,9.36157576 18.8421212,9.36393939 L18.8421212,9.35921212 L20.7897576,9.35921212 L21.0072121,9.87133333 L21.0072121,9.35921212 L23.1084848,9.35921212 C23.1084848,9.35921212 23.4078788,9.84769697 23.4393939,9.90284848 L23.4393939,9.35921212 L25.4721212,9.35921212 L25.4721212,13.721697 L23.4,13.721697 L23.0493939,13.1512727 L23.0493939,13.7224848 L20.4454545,13.7224848 L20.1555152,13.0575152 L19.4653333,13.0575152 L19.181697,13.7232727 L17.4593939,13.7232727 L17.4168485,13.7185455 C17.2253939,13.6893939 16.9756364,13.604303 16.7313939,13.4506667 L16.7313939,13.734303 L15.3006061,13.734303 L15.3006061,13.7224848 L13.4995152,13.7224848 L13.4995152,13.1268485 L13.5034545,12.6226061 L13.3695152,12.6226061 L13.3695152,13.721697 L7.09090909,13.721697 L7.09090909,13.6547273 L7.05939394,13.7209091 L5.61757576,13.7209091 C5.61757576,13.7209091 5.59393939,13.6689091 5.57818182,13.6397576 L5.57818182,13.7224848 L2.96242424,13.7224848 L2.67878788,13.0575152 L1.98939394,13.0575152 L1.70181818,13.7232727 L0.464848485,13.7232727 L0.464848485,25.6927273 L26.7547879,25.6927273 L26.7547879,18.8342424 C26.4632727,19.0099394 26.1229091,19.0910909 25.8014545,19.0910909 L25.8030303,19.090303 Z" id="Shape"></path>
                <path d="M12.7762424,11.2792727 L13.6192727,11.2792727 C13.8658788,11.2792727 14.0683636,11.1453333 14.0683636,10.978303 C14.0683636,10.8128485 13.8658788,10.6789091 13.6192727,10.6789091 L12.7762424,10.6789091 L12.7762424,11.2792727 L12.7762424,11.2792727 Z M14.1156364,13.1244848 L14.1156364,12.5075758 C14.1156364,12.5075758 14.0825455,12.0253939 13.572,12.0253939 L12.7762424,12.0253939 L12.7762424,13.1244848 L11.96,13.1244848 L11.96,9.95327273 L13.9415152,9.95327273 C13.9415152,9.95327273 14.9752121,9.83115152 14.9752121,10.8813939 C14.9752121,11.4305455 14.5182424,11.622 14.5182424,11.622 C14.5182424,11.622 14.9161212,11.8063636 14.9161212,12.3429091 L14.9161212,13.1260606 L14.1164242,13.1260606 L14.1156364,13.1244848 Z M19.4227879,11.6495758 L20.2185455,11.6495758 L19.8261818,10.705697 L19.4227879,11.6495758 L19.4227879,11.6495758 Z M23.7498182,13.1229091 L22.4545455,11.0066667 L22.4545455,13.1260606 L20.8551515,13.1260606 L20.566,12.4610909 L19.0745455,12.4610909 L18.7909091,13.1252727 L17.5121818,13.1252727 C17.5121818,13.1252727 16.4130909,12.9692727 16.4130909,11.628303 C16.4130909,9.86818182 17.6595152,9.93830303 17.7020606,9.92648485 L18.7105455,9.95406061 L18.7105455,10.6670909 L17.8832727,10.6765455 C17.8832727,10.6765455 17.3427879,10.6765455 17.2781818,11.3698788 C17.270303,11.4486667 17.2671515,11.5227273 17.2671515,11.5904848 C17.270303,12.662 18.2110303,12.3287273 18.2425455,12.3192727 L19.2533939,9.95327273 L20.3973939,9.95327273 L21.6201818,12.8290303 L21.6201818,9.95327273 L22.7736364,9.95327273 L24.0531515,12.0411515 L24.0531515,9.95327273 L24.875697,9.95327273 L24.875697,13.1229091 L23.7490303,13.1229091 L23.7498182,13.1229091 Z M1.94842424,11.6495758 L2.74418182,11.6495758 L2.34709091,10.7041212 L1.94921212,11.6495758 L1.94842424,11.6495758 Z M7.70781818,13.1229091 L7.70781818,10.9357576 L6.68357576,13.123697 L6.01387879,13.123697 L4.98648485,10.946 L4.98648485,13.123697 L3.37606061,13.123697 L3.09242424,12.4595152 L1.60175758,12.4595152 L1.31418182,13.123697 L0.420727273,13.123697 L1.77587879,9.95406061 L2.9230303,9.95406061 L4.16630303,12.8660606 L4.16630303,9.95406061 L5.45606061,9.95406061 L6.35424242,11.9237576 L7.24769697,9.95406061 L8.53666667,9.95406061 L8.53666667,13.123697 L7.70939394,13.123697 L7.70781818,13.1229091 Z M8.98733333,13.1229091 L8.98733333,9.95248485 L11.5353333,9.95248485 L11.5353333,10.6930909 L9.80987879,10.6930909 L9.80987879,11.1815758 L11.4912121,11.1815758 L11.4912121,11.9001212 L9.80909091,11.9001212 L9.80909091,12.4374545 L11.5361212,12.4374545 L11.5361212,13.1229091 L8.98733333,13.1229091 Z" id="Shape"></path>
                <path d="M15.3132121,13.1355152 L16.1349697,13.1355152 L16.1349697,9.95484848 L15.3116364,9.95484848 M15.9277576,16.6557576 L16.7707879,16.6557576 C17.0166061,16.6557576 17.2167273,16.5218182 17.2167273,16.3547879 C17.2167273,16.1877576 17.0166061,16.0538182 16.7707879,16.0538182 L15.9277576,16.0538182 L15.9277576,16.6549697 M17.2671515,18.4986061 L17.2671515,17.8840606 C17.2671515,17.8840606 17.2340606,17.3995152 16.7219394,17.3995152 L15.9277576,17.3995152 L15.9277576,18.4986061 L15.1115152,18.4986061 L15.1115152,15.3289697 L17.0938182,15.3289697 C17.0938182,15.3289697 18.1275152,15.2052727 18.1275152,16.2570909 C18.1275152,16.8046667 17.6705455,16.997697 17.6705455,16.997697 C17.6705455,16.997697 18.0629091,17.1804848 18.0629091,17.7162424 L18.0629091,18.4993939 L17.2671515,18.4993939 M12.629697,16.6494545 L13.4727273,16.6494545 C13.7185455,16.6494545 13.9186667,16.5155152 13.9186667,16.3484848 C13.9186667,16.1830303 13.7185455,16.0490909 13.4735152,16.0490909 L12.6304848,16.0490909 L12.6304848,16.6494545 M7.16024242,17.8092121 L8.88018182,17.8092121 L9.68618182,16.9346667 L8.88018182,16.0648485 L7.16024242,16.0648485 L7.16024242,16.5533333 L8.83606061,16.5533333 L8.83606061,17.2718788 L7.16024242,17.2718788 L7.16024242,17.8092121 M10.8002424,16.9346667 L11.8142424,18.0400606 L11.8142424,15.834 L10.8010303,16.9346667 M11.8252727,18.4962424 L11.1114545,18.4962424 L10.2471515,17.556303 L9.3749697,18.4962424 L6.33769697,18.4962424 L6.33769697,15.3195152 L9.31036364,15.3195152 L10.2479394,16.328 L11.1870909,15.3250303 L11.8142424,15.3250303 L11.8142424,15.3210909 L13.7957576,15.3210909 C13.7957576,15.3210909 14.8278788,15.2084242 14.8278788,16.2539394 C14.8278788,17.186 14.4843636,17.4767273 13.4286061,17.4767273 L12.629697,17.4767273 L12.629697,18.4978182 L11.823697,18.4978182 M22.8358788,18.4899394 L21.3830303,18.4899394 L21.3830303,17.7603636 L22.6562424,17.7603636 C22.6562424,17.7603636 23.1132121,17.8139394 23.1132121,17.5082424 C23.1132121,17.2230303 22.4222424,17.2458788 22.4222424,17.2458788 C22.4222424,17.2458788 21.2955758,17.3404242 21.2955758,16.3004242 C21.2955758,15.2643636 22.3119394,15.3234545 22.3119394,15.3234545 L23.8798182,15.3234545 L23.8798182,16.0640606 L22.6168485,16.0640606 C22.6168485,16.0640606 22.1803636,15.9773939 22.1803636,16.2893939 C22.1803636,16.5517576 22.7736364,16.5131515 22.7736364,16.5131515 C22.7736364,16.5131515 24.0200606,16.4241212 24.0200606,17.3798182 C24.0200606,18.4024848 23.2164242,18.4930909 22.9312121,18.4930909 C22.8705455,18.4930909 22.8335152,18.4891515 22.8335152,18.4891515 M18.4639394,18.4946667 L18.4639394,15.3289697 L21.0103636,15.3289697 L21.0103636,16.0632727 L19.2849091,16.0632727 L19.2849091,16.5493939 L20.9678182,16.5493939 L20.9678182,17.270303 L19.2872727,17.270303 L19.2872727,17.8060606 L21.0111515,17.8060606 L21.0111515,18.4930909 M25.7147879,18.4883636 L24.2611515,18.4883636 L24.2611515,17.7587879 L25.5296364,17.7587879 C25.5296364,17.7587879 25.9929091,17.8123636 25.9929091,17.5066667 C25.9929091,17.2214545 25.3027273,17.244303 25.3027273,17.244303 C25.3027273,17.244303 24.1760606,17.3388485 24.1760606,16.2988485 C24.1760606,15.2627879 25.1924242,15.3218788 25.1924242,15.3218788 L26.7563636,15.3218788 L26.7563636,16.0624848 L25.4957576,16.0624848 C25.4957576,16.0624848 25.0608485,15.9758182 25.0608485,16.2878182 C25.0608485,16.5501818 25.655697,16.5115758 25.655697,16.5115758 C25.655697,16.5115758 26.9005455,16.4225455 26.9005455,17.3782424 C26.9005455,18.4009091 26.0984848,18.4915152 25.8132727,18.4915152 C25.7526061,18.4915152 25.7147879,18.4875758 25.7147879,18.4875758" id="Shape"></path>
            </g>
        </g>
    </g>
</svg>