<?xml version="1.0" encoding="UTF-8"?>
<svg width="46px" height="30px" viewBox="0 0 46 30" version="1.1" xmlns="http://www.w3.org/2000/svg" xmlns:xlink="http://www.w3.org/1999/xlink">
    <!-- Generator: Sketch 43.2 (39069) - http://www.bohemiancoding.com/sketch -->
    <title>american-express</title>
    <desc>Created with Sketch.</desc>
    <defs></defs>
    <g id="Page-1" stroke="none" stroke-width="1" fill="none" fill-rule="evenodd">
        <g id="american-express">
            <g id="Group-4" transform="translate(4.000000, 10.000000)">
                <path d="M16.7528358,0 L15.6065672,2.51820896 L14.4602985,0 L9.26089552,0 L9.26089552,1.25014925 L8.73074627,0.00179104478 L4.29253731,0.00179104478 L0,9.92179104 L5.06268657,9.92238514 L5.71641791,8.41074627 L7.28358209,8.41074627 L7.92835821,9.92238806 L28.9985042,9.92238514 L30.3746283,8.4454032 L31.7358216,9.92209035 L37.9104478,9.92179104 L33.5820896,5 L38.358209,0 L31.950448,3.74603013e-15 L30.3805952,1.64548261 L28.8522384,0 L16.7528358,0 Z" id="Combined-Shape" fill="#0062E8"></path>
                <path d="M5.56238806,5.20119403 L7.37134328,5.20119403 L6.46865672,3.0519403 L5.5641791,5.20119403 L5.56238806,5.20119403 Z M18.6549254,8.55044776 L18.6549254,3.57850746 L16.3265672,8.55223881 L14.8041791,8.55223881 L12.4686567,3.60179104 L12.4686567,8.55223881 L8.80776119,8.55223881 L8.16298507,7.04238806 L4.77432836,7.04238806 L4.12059701,8.55223881 L2.08955224,8.55223881 L5.17014925,1.34686567 L7.77791045,1.34686567 L10.6041791,7.96656716 L10.6041791,1.34686567 L13.5361194,1.34686567 L15.5779104,5.82447761 L17.6089552,1.34686567 L20.5391045,1.34686567 L20.5391045,8.55223881 L18.6585075,8.55223881 L18.6549254,8.55044776 Z" id="Shape" fill="#FFFFFF"></path>
                <path d="M32.3444776,8.56477612 L30.3797015,6.4280597 L28.3970149,8.56477612 L21.4925373,8.56477612 L21.4925373,1.34328358 L28.2501493,1.34328358 L30.3814925,3.6358209 L32.5164179,1.3558209 L35.1450746,1.34328358 L31.6376119,5.02567164 L34.9002985,8.56835821 L32.3444776,8.56477612 Z M23.3623881,7.00298507 L27.2722388,7.00298507 L29.1044776,5.01492537 L27.2722388,3.03761194 L23.3623881,3.03761194 L23.3623881,4.1480597 L27.1719403,4.1480597 L27.1719403,5.78149254 L23.3623881,5.78149254 L23.3623881,7.00298507 Z" id="Shape" fill="#FFFFFF"></path>
            </g>
        </g>
    </g>
</svg>