<?xml version="1.0" encoding="UTF-8"?>
<svg width="46px" height="30px" viewBox="0 0 46 30" version="1.1" xmlns="http://www.w3.org/2000/svg" xmlns:xlink="http://www.w3.org/1999/xlink">
    <!-- Generator: Sketch 43.2 (39069) - http://www.bohemiancoding.com/sketch -->
    <title>discover</title>
    <desc>Created with Sketch.</desc>
    <defs>
        <radialGradient cx="50%" cy="-50%" fx="50%" fy="-50%" r="100%" gradientTransform="translate(0.500000,-0.500000),scale(0.964958,1.000000),translate(-0.500000,0.500000)" id="radialGradient-1">
            <stop stop-color="#FAD961" offset="0%"></stop>
            <stop stop-color="#F76B1C" offset="100%"></stop>
        </radialGradient>
    </defs>
    <g id="Page-1" stroke="none" stroke-width="1" fill="none" fill-rule="evenodd">
        <g id="discover" fill-rule="nonzero">
            <g id="Group" transform="translate(3.500000, 11.000000)">
                <path d="M3.97019608,5.37176471 C3.5932549,5.70847059 3.10901961,5.85176471 2.33466667,5.85176471 L2.01419608,5.85317647 L2.01419608,1.85294118 L2.3332549,1.85294118 C3.10690196,1.85294118 3.5734902,1.98988235 3.9694902,2.34211765 C4.38454902,2.70494118 4.63019608,3.26682353 4.63019608,3.84564706 C4.63019608,4.428 4.38454902,5.01035294 3.97019608,5.37035294 L3.97019608,5.37176471 Z M2.57254902,0.830117647 L0.818431373,0.830117647 L0.818431373,6.87952941 L2.56690196,6.87952941 C3.49372549,6.87952941 4.16431373,6.66070588 4.75231373,6.18070588 C5.45113725,5.60894118 5.86478431,4.74776471 5.86478431,3.85835294 C5.86478431,2.07247059 4.51231373,0.830117647 2.57537255,0.830117647 L2.57254902,0.830117647 Z" id="Shape" fill="#0D1619"></path>
                <polygon id="Shape" fill="#0D1619" points="6.41396078 6.87741176 7.60690196 6.87741176 7.60690196 0.828 6.41396078 0.828"></polygon>
                <path d="M10.5306667,3.14823529 C9.81419608,2.88705882 9.60313725,2.71411765 9.60313725,2.38729412 C9.60313725,2.00611765 9.9772549,1.71670588 10.492549,1.71670588 C10.852549,1.71670588 11.1461961,1.86282353 11.4596078,2.20517647 L12.082902,1.40047059 C11.5676078,0.954352941 10.9534902,0.729882353 10.282902,0.729882353 C9.19866667,0.729882353 8.37207843,1.47105882 8.37207843,2.45929412 C8.37207843,3.29576471 8.7574902,3.72070588 9.87772549,4.11811765 C10.3457255,4.28329412 10.5836078,4.39129412 10.7036078,4.464 C10.9436078,4.61929412 11.0621961,4.836 11.0621961,5.09011765 C11.0621961,5.58211765 10.666902,5.94282353 10.132549,5.94282353 C9.56431373,5.94282353 9.10478431,5.66329412 8.82878431,5.13811765 L8.05937255,5.87223529 C8.60996078,6.66988235 9.27066667,7.02423529 10.1812549,7.02423529 C11.4207843,7.02423529 12.2932549,6.20541176 12.2932549,5.03647059 C12.2932549,4.07647059 11.890902,3.64023529 10.528549,3.14823529" id="Shape" fill="#0D1619"></path>
                <path d="M12.670902,3.85623529 C12.670902,5.63505882 14.086902,7.01294118 15.9059608,7.01294118 C16.4191373,7.01294118 16.858902,6.91270588 17.4024314,6.66 L17.4024314,5.27082353 C16.9224314,5.74235294 16.5010196,5.93223529 15.9596078,5.93223529 C14.7560784,5.93223529 13.900549,5.07105882 13.900549,3.84564706 C13.900549,2.68588235 14.7807843,1.77035294 15.9052549,1.77035294 C16.4713725,1.77035294 16.9047843,1.96941176 17.4017255,2.448 L17.4017255,1.06305882 C16.8779608,0.801882353 16.4459608,0.693882353 15.9313725,0.693882353 C14.1207843,0.693882353 12.6687843,2.1 12.6687843,3.85623529" id="Shape" fill="#0D1619"></path>
                <polyline id="Shape" fill="#0D1619" points="27.0878431 4.89176471 25.4501961 0.828705882 24.1464314 0.828705882 26.7476078 7.03129412 27.3899608 7.03129412 30.0384314 0.830117647 28.7424314 0.830117647 27.0878431 4.89176471"></polyline>
                <polyline id="Shape" fill="#0D1619" points="30.5791373 6.87741176 33.9701961 6.87741176 33.9701961 5.85176471 31.774902 5.85176471 31.774902 4.21905882 33.886902 4.21905882 33.886902 3.19552941 31.774902 3.19552941 31.774902 1.85435294 33.9701961 1.85435294 33.9701961 0.828705882 30.5791373 0.828705882 30.5791373 6.87670588"></polyline>
                <path d="M36.3010196,3.61270588 L35.9551373,3.61270588 L35.9551373,1.78023529 L36.3221961,1.78023529 C37.066902,1.78023529 37.4713725,2.08941176 37.4713725,2.67670588 C37.4713725,3.28376471 37.066902,3.61270588 36.3010196,3.61270588 Z M38.6996078,2.61458824 C38.6996078,1.48023529 37.9111373,0.828705882 36.532549,0.828705882 L34.7593725,0.828705882 L34.7593725,6.87811765 L35.9544314,6.87811765 L35.9544314,4.44705882 L36.1118431,4.44705882 L37.7650196,6.87741176 L39.2346667,6.87741176 L37.3019608,4.32917647 C38.2040784,4.14776471 38.6996078,3.54 38.6996078,2.61388235 L38.6996078,2.61458824 Z" id="Shape" fill="#0D1619"></path>
                <path d="M21.1238431,0.717176471 C19.3203137,0.717176471 17.8570196,2.10776471 17.8570196,3.82447059 C17.8570196,5.64988235 19.2567843,7.01364706 21.1238431,7.01364706 C22.9450196,7.01364706 24.3836078,5.63152941 24.3836078,3.86047059 C24.3836078,2.09929412 22.9541961,0.715764706 21.1238431,0.715764706" id="Shape" fill="url(#radialGradient-1)"></path>
            </g>
        </g>
    </g>
</svg>