<?xml version="1.0" encoding="UTF-8"?>
<svg width="46px" height="30px" viewBox="0 0 46 30" version="1.1" xmlns="http://www.w3.org/2000/svg" xmlns:xlink="http://www.w3.org/1999/xlink">
    <!-- Generator: Sketch 43.2 (39069) - http://www.bohemiancoding.com/sketch -->
    <title>discover-2</title>
    <desc>Created with Sketch.</desc>
    <defs>
        <radialGradient cx="50%" cy="-50%" fx="50%" fy="-50%" r="100%" gradientTransform="translate(0.500000,-0.500000),scale(0.964958,1.000000),translate(-0.500000,0.500000)" id="radialGradient-1">
            <stop stop-color="#FAD961" offset="0%"></stop>
            <stop stop-color="#F76B1C" offset="100%"></stop>
        </radialGradient>
    </defs>
    <g id="Page-1" stroke="none" stroke-width="1" fill="none" fill-rule="evenodd">
        <g id="discover-2" fill-rule="nonzero">
            <path d="M46,30 L46,15 C42.1543564,17.3599843 27.6556245,25.5019836 4,30 L46,30 Z" id="Shape" fill="#F76D1D"></path>
            <g id="Group" transform="translate(8.000000, 12.000000)">
                <path d="M3.15485714,4.13114286 C2.86497143,4.39008571 2.49257143,4.50028571 1.89705714,4.50028571 L1.6506,4.50137143 L1.6506,1.425 L1.89597143,1.425 C2.49094286,1.425 2.84977143,1.53031429 3.15431429,1.8012 C3.47351429,2.08022857 3.66242857,2.51234286 3.66242857,2.95748571 C3.66242857,3.40534286 3.47351429,3.8532 3.15485714,4.13005714 L3.15485714,4.13114286 Z M2.08,0.6384 L0.731,0.6384 L0.731,5.29068571 L2.07565714,5.29068571 C2.78842857,5.29068571 3.30414286,5.1224 3.75634286,4.75325714 C4.29377143,4.31354286 4.61188571,3.65125714 4.61188571,2.96725714 C4.61188571,1.59382857 3.57177143,0.6384 2.08217143,0.6384 L2.08,0.6384 Z" id="Shape" fill="#0D1619"></path>
                <polygon id="Shape" fill="#0D1619" points="5.03422857 5.28905714 5.95165714 5.28905714 5.95165714 0.636771429 5.03422857 0.636771429"></polygon>
                <path d="M8.20017143,2.42114286 C7.64917143,2.22028571 7.48685714,2.08728571 7.48685714,1.83594286 C7.48685714,1.5428 7.77457143,1.32022857 8.17085714,1.32022857 C8.44771429,1.32022857 8.67354286,1.4326 8.91457143,1.69588571 L9.39391429,1.07702857 C8.99762857,0.733942857 8.52534286,0.561314286 8.00962857,0.561314286 C7.1758,0.561314286 6.54011429,1.13131429 6.54011429,1.89131429 C6.54011429,2.5346 6.83651429,2.8614 7.69802857,3.16702857 C8.05794286,3.29405714 8.24088571,3.37711429 8.33317143,3.43302857 C8.51774286,3.55245714 8.60894286,3.71911429 8.60894286,3.91454286 C8.60894286,4.29291429 8.30494286,4.57031429 7.894,4.57031429 C7.457,4.57031429 7.1036,4.35534286 6.89134286,3.95145714 L6.29962857,4.51602857 C6.72305714,5.12945714 7.23117143,5.40197143 7.93145714,5.40197143 C8.88471429,5.40197143 9.55568571,4.77225714 9.55568571,3.87328571 C9.55568571,3.135 9.24625714,2.79951429 8.19854286,2.42114286" id="Shape" fill="#0D1619"></path>
                <path d="M9.84611429,2.96562857 C9.84611429,4.33362857 10.9350857,5.39328571 12.3340286,5.39328571 C12.7286857,5.39328571 13.0668857,5.3162 13.4848857,5.12185714 L13.4848857,4.05351429 C13.1157429,4.41614286 12.7916571,4.56217143 12.3752857,4.56217143 C11.4497143,4.56217143 10.7917714,3.89988571 10.7917714,2.95748571 C10.7917714,2.06557143 11.4687143,1.36148571 12.3334857,1.36148571 C12.7688571,1.36148571 13.1021714,1.51457143 13.4843429,1.88262857 L13.4843429,0.817542857 C13.0815429,0.616685714 12.7493143,0.533628571 12.3535714,0.533628571 C10.9611429,0.533628571 9.84448571,1.615 9.84448571,2.96562857" id="Shape" fill="#0D1619"></path>
                <polyline id="Shape" fill="#0D1619" points="20.9334286 3.762 19.674 0.637314286 18.6713429 0.637314286 20.6717714 5.4074 21.1657714 5.4074 23.2025714 0.6384 22.2058857 0.6384 20.9334286 3.762"></polyline>
                <polyline id="Shape" fill="#0D1619" points="23.6184 5.28905714 26.2262857 5.28905714 26.2262857 4.50028571 24.538 4.50028571 24.538 3.24465714 26.1622286 3.24465714 26.1622286 2.45751429 24.538 2.45751429 24.538 1.42608571 26.2262857 1.42608571 26.2262857 0.637314286 23.6184 0.637314286 23.6184 5.28851429"></polyline>
                <path d="M28.0188,2.77834286 L27.7528,2.77834286 L27.7528,1.36908571 L28.0350857,1.36908571 C28.6078,1.36908571 28.9188571,1.60685714 28.9188571,2.05851429 C28.9188571,2.52537143 28.6078,2.77834286 28.0188,2.77834286 Z M29.8634286,2.01074286 C29.8634286,1.13837143 29.2570571,0.637314286 28.1968571,0.637314286 L26.8332,0.637314286 L26.8332,5.2896 L27.7522571,5.2896 L27.7522571,3.42 L27.8733143,3.42 L29.1446857,5.28905714 L30.2749143,5.28905714 L28.7885714,3.32934286 C29.4823429,3.18982857 29.8634286,2.72242857 29.8634286,2.0102 L29.8634286,2.01074286 Z" id="Shape" fill="#0D1619"></path>
                <path d="M16.3468286,0.551542857 C14.9598286,0.551542857 13.8344857,1.62097143 13.8344857,2.9412 C13.8344857,4.34502857 14.9109714,5.39382857 16.3468286,5.39382857 C17.7474,5.39382857 18.8537429,4.33091429 18.8537429,2.96888571 C18.8537429,1.61445714 17.7544571,0.550457143 16.3468286,0.550457143" id="Shape" fill="url(#radialGradient-1)"></path>
            </g>
        </g>
    </g>
</svg>