<?xml version="1.0" encoding="UTF-8"?>
<svg width="40px" height="40px" viewBox="0 0 40 40" version="1.1" xmlns="http://www.w3.org/2000/svg" xmlns:xlink="http://www.w3.org/1999/xlink" style="background: #CC4A41;">
    <!-- Generator: Sketch 43.2 (39069) - http://www.bohemiancoding.com/sketch -->
    <title>google-plus</title>
    <desc>Created with Sketch.</desc>
    <defs></defs>
    <g id="Page-1" stroke="none" stroke-width="1" fill="none" fill-rule="evenodd">
        <g id="google-plus" fill="#FFFFFF">
            <g id="Fill-20-+-Fill-21" transform="translate(8.181818, 11.818182)">
                <path d="M0.0331182796,7.89966764 C0.102365591,3.75659824 3.91124145,0.128367546 8.05431085,0.266588465 C10.0394917,0.174349951 11.9056109,1.03816227 13.4260411,2.2514956 C12.777087,2.9888563 12.1051417,3.69912023 11.3872141,4.36340176 C9.55941349,3.10025415 6.9600391,2.73923754 5.13223851,4.19835777 C2.51753666,6.00672532 2.39847507,10.27652 4.91354839,12.2231085 C7.35937439,14.4425806 11.9822483,13.3406452 12.6580254,9.94232649 C11.1260997,9.91933529 9.59006843,9.94232649 8.05814272,9.89251222 C8.05431085,8.97861193 8.05047898,8.06471163 8.05431085,7.15108504 C10.6153666,7.14342131 13.1764223,7.13931574 15.7413099,7.15874878 C15.8948583,9.30897361 15.6107527,11.5974194 14.2898534,13.375132 C12.2893451,16.1896383 8.27327468,17.0113001 5.13990225,15.8056305 C1.99530792,14.6076246 -0.231827957,11.286217 0.0331182796,7.89966764" id="Fill-20"></path>
                <path d="M20.736696,4.84320626 L23.0213099,4.84320626 C23.0251417,5.60739003 23.0289736,6.37540567 23.0366373,7.13931574 C23.8008211,7.14725318 24.5688368,7.14725318 25.3327468,7.15491691 L25.3327468,9.43953079 C24.5688368,9.44719453 23.804653,9.45102639 23.0366373,9.45869013 C23.0289736,10.2264321 23.0251417,10.9906158 23.0213099,11.7547996 L20.7328641,11.7547996 C20.7252004,10.9906158 20.7252004,10.2264321 20.7175367,9.46252199 C19.9533529,9.45485826 19.1856109,9.44719453 18.4214272,9.43953079 L18.4214272,7.15491691 C19.1856109,7.14725318 19.949521,7.14342131 20.7175367,7.13931574 C20.7213685,6.3715738 20.7290323,5.60739003 20.736696,4.84320626" id="Fill-21"></path>
            </g>
        </g>
    </g>
</svg>