<?xml version="1.0" encoding="UTF-8"?>
<svg width="24px" height="24px" viewBox="0 0 24 24" version="1.1" xmlns="http://www.w3.org/2000/svg" xmlns:xlink="http://www.w3.org/1999/xlink">
    <!-- Generator: Sketch 43.2 (39069) - http://www.bohemiancoding.com/sketch -->
    <title>loading</title>
    <desc>Created with Sketch.</desc>
    <defs></defs>
    <g id="Page-1" stroke="none" stroke-width="1" fill="none" fill-rule="evenodd">
        <g id="loading" fill="#646973">
            <path d="M11,0.990777969 C11,0.443586406 11.4438648,0 12,0 C12.5522847,0 13,0.45097518 13,0.990777969 L13,5.00922203 C13,5.55641359 12.5561352,6 12,6 C11.4477153,6 11,5.54902482 11,5.00922203 L11,0.990777969 Z M16.6385856,1.96573405 C16.9121814,1.49185225 17.5183728,1.32962757 18,1.60769515 C18.4782926,1.88383753 18.6405378,2.49825112 18.3706364,2.96573405 L16.3614144,6.44580869 C16.0878186,6.91969048 15.4816272,7.08191517 15,6.80384758 C14.5217074,6.5277052 14.3594622,5.91329162 14.6293636,5.44580869 L16.6385856,1.96573405 Z M21.034266,5.62936358 C21.5081477,5.3557678 22.1142373,5.51837281 22.3923048,6 C22.6684472,6.47829262 22.5017489,7.09151299 22.034266,7.36141439 L18.5541913,9.37063642 C18.0803095,9.6442322 17.47422,9.48162719 17.1961524,9 C16.92001,8.52170738 17.0867084,7.90848701 17.5541913,7.63858561 L21.034266,5.62936358 Z M23.009222,11 C23.5564136,11 24,11.4438648 24,12 C24,12.5522847 23.5490248,13 23.009222,13 L18.990778,13 C18.4435864,13 18,12.5561352 18,12 C18,11.4477153 18.4509752,11 18.990778,11 L23.009222,11 Z M22.034266,16.6385856 C22.5081477,16.9121814 22.6703724,17.5183728 22.3923048,18 C22.1161625,18.4782926 21.5017489,18.6405378 21.034266,18.3706364 L17.5541913,16.3614144 C17.0803095,16.0878186 16.9180848,15.4816272 17.1961524,15 C17.4722948,14.5217074 18.0867084,14.3594622 18.5541913,14.6293636 L22.034266,16.6385856 Z M18.3706364,21.034266 C18.6442322,21.5081477 18.4816272,22.1142373 18,22.3923048 C17.5217074,22.6684472 16.908487,22.5017489 16.6385856,22.034266 L14.6293636,18.5541913 C14.3557678,18.0803095 14.5183728,17.47422 15,17.1961524 C15.4782926,16.92001 16.091513,17.0867084 16.3614144,17.5541913 L18.3706364,21.034266 Z M13,23.009222 C13,23.5564136 12.5561352,24 12,24 C11.4477153,24 11,23.5490248 11,23.009222 L11,18.990778 C11,18.4435864 11.4438648,18 12,18 C12.5522847,18 13,18.4509752 13,18.990778 L13,23.009222 Z M7.36141439,22.034266 C7.08781861,22.5081477 6.48162719,22.6703724 6,22.3923048 C5.52170738,22.1161625 5.35946219,21.5017489 5.62936358,21.034266 L7.63858561,17.5541913 C7.91218139,17.0803095 8.51837281,16.9180848 9,17.1961524 C9.47829262,17.4722948 9.64053781,18.0867084 9.37063642,18.5541913 L7.36141439,22.034266 Z M2.96573405,18.3706364 C2.49185225,18.6442322 1.88576274,18.4816272 1.60769515,18 C1.33155278,17.5217074 1.49825112,16.908487 1.96573405,16.6385856 L5.44580869,14.6293636 C5.91969048,14.3557678 6.52577999,14.5183728 6.80384758,15 C7.07998995,15.4782926 6.91329162,16.091513 6.44580869,16.3614144 L2.96573405,18.3706364 Z M0.990777969,13 C0.443586406,13 -4.02542194e-16,12.5561352 -5.04702569e-16,12 C-6.06155632e-16,11.4477153 0.45097518,11 0.990777969,11 L5.00922203,11 C5.55641359,11 6,11.4438648 6,12 C6,12.5522847 5.54902482,13 5.00922203,13 L0.990777969,13 Z M1.96573405,7.36141439 C1.49185225,7.08781861 1.32962757,6.48162719 1.60769515,6 C1.88383753,5.52170738 2.49825112,5.35946219 2.96573405,5.62936358 L6.44580869,7.63858561 C6.91969048,7.91218139 7.08191517,8.51837281 6.80384758,9 C6.5277052,9.47829262 5.91329162,9.64053781 5.44580869,9.37063642 L1.96573405,7.36141439 Z M5.62936358,2.96573405 C5.3557678,2.49185225 5.51837281,1.88576274 6,1.60769515 C6.47829262,1.33155278 7.09151299,1.49825112 7.36141439,1.96573405 L9.37063642,5.44580869 C9.6442322,5.91969048 9.48162719,6.52577999 9,6.80384758 C8.52170738,7.07998995 7.90848701,6.91329162 7.63858561,6.44580869 L5.62936358,2.96573405 Z" id="Rectangle-1"></path>
        </g>
    </g>
</svg>