<?xml version="1.0" encoding="UTF-8"?>
<svg width="46px" height="30px" viewBox="0 0 46 30" version="1.1" xmlns="http://www.w3.org/2000/svg" xmlns:xlink="http://www.w3.org/1999/xlink">
    <!-- Generator: Sketch 43.2 (39069) - http://www.bohemiancoding.com/sketch -->
    <title>mastercard</title>
    <desc>Created with Sketch.</desc>
    <defs></defs>
    <g id="Page-1" stroke="none" stroke-width="1" fill="none" fill-rule="evenodd">
        <g id="mastercard" fill-rule="nonzero">
            <path d="M10.2071367,25.6064282 L10.2071367,23.5438484 C10.2314344,23.1929332 10.103685,22.8485216 9.85647973,22.5984794 C9.60927444,22.3484372 9.26651907,22.2169447 8.9156569,22.2375479 C8.45327763,22.20721 8.01104725,22.4311429 7.76156855,22.8219455 C7.53411557,22.442795 7.11764164,22.2185569 6.67617594,22.2375479 C6.29179492,22.2181001 5.92586791,22.4038312 5.71443565,22.7256918 L5.71443565,22.3200511 L5,22.3200511 L5,25.6064282 L5.72130522,25.6064282 L5.72130522,23.7982332 C5.69024045,23.5706929 5.76227455,23.3411508 5.91775003,23.172247 C6.07322551,23.0033432 6.29591386,22.9127078 6.52504532,22.9250745 C6.99904589,22.9250745 7.23948097,23.2344614 7.23948097,23.791358 L7.23948097,25.6201787 L7.96078618,25.6201787 L7.96078618,23.7982332 C7.93099613,23.5709517 8.0034707,23.3421533 8.15865792,23.1735627 C8.31384514,23.004972 8.53575681,22.9139581 8.76452629,22.9250745 C9.25226601,22.9250745 9.4858315,23.2344614 9.4858315,23.791358 L9.4858315,25.6201787 L10.2071367,25.6064282 Z M20.8790192,22.3200511 L19.7043221,22.3200511 L19.7043221,21.3231375 L18.9830169,21.3231375 L18.9830169,22.3200511 L18.3304074,22.3200511 L18.3304074,22.9732013 L18.996756,22.9732013 L18.996756,24.4857598 C18.996756,25.2489143 19.2921477,25.7026819 20.1371052,25.7026819 C20.4527822,25.7037432 20.7623421,25.6155647 21.0301498,25.4482971 L20.8240626,24.8363984 C20.6324713,24.9507718 20.4150244,25.0146406 20.1920618,25.0220306 C19.8485832,25.0220306 19.7180613,24.8020221 19.7180613,24.4720093 L19.7180613,22.9732013 L20.8858888,22.9732013 L20.8790192,22.3200511 Z M26.9723309,22.2375479 C26.617489,22.2271035 26.2853677,22.4117682 26.1067646,22.7188165 L26.1067646,22.3200511 L25.3991985,22.3200511 L25.3991985,25.6064282 L26.1136342,25.6064282 L26.1136342,23.7638569 C26.1136342,23.2207109 26.3471997,22.9181992 26.8005915,22.9181992 C26.9533998,22.9161073 27.1051249,22.9441413 27.2471138,23.0007024 L27.4669402,22.3131758 C27.3037782,22.254758 27.1318784,22.2245344 26.9585917,22.2237973 L26.9723309,22.2375479 Z M17.7602328,22.5813112 C17.3558296,22.340669 16.8908711,22.22135 16.420666,22.2375479 C15.5894476,22.2375479 15.0467513,22.6363133 15.0467513,23.2894636 C15.0467513,23.8257343 15.4451865,24.1557471 16.1802309,24.2588761 L16.5237096,24.3070029 C16.9152753,24.362005 17.1007537,24.465134 17.1007537,24.6507662 C17.1007537,24.9051511 16.83971,25.0495316 16.3519702,25.0495316 C15.9596497,25.0608972 15.5749195,24.9398126 15.259708,24.7057683 L14.9162294,25.2626649 C15.3323929,25.5534854 15.8308518,25.702906 16.3382311,25.6889314 C17.2862322,25.6889314 17.8357981,25.2420391 17.8357981,24.6163899 C17.8357981,23.9907407 17.403015,23.7363558 16.6885793,23.6332269 L16.3451007,23.5851 C16.0359699,23.5438484 15.7886652,23.481971 15.7886652,23.2619625 C15.7886652,23.041954 16.0222307,22.8769476 16.4137964,22.8769476 C16.7757115,22.8811553 17.1304976,22.9782105 17.4442324,23.1588335 L17.7602328,22.5813112 Z M36.8954298,22.2375479 C36.540588,22.2271035 36.2084666,22.4117682 36.0298636,22.7188165 L36.0298636,22.3200511 L35.3222975,22.3200511 L35.3222975,25.6064282 L36.0367331,25.6064282 L36.0367331,23.7638569 C36.0367331,23.2207109 36.2702986,22.9181992 36.7236905,22.9181992 C36.8764987,22.9161073 37.0282238,22.9441413 37.1702128,23.0007024 L37.3900391,22.3131758 C37.2268771,22.254758 37.0549774,22.2245344 36.8816907,22.2237973 L36.8954298,22.2375479 Z M27.6902013,23.9563644 C27.6730197,24.4233444 27.8532523,24.8759527 28.1866598,25.2030936 C28.5200673,25.5302346 28.9757808,25.7016195 29.4419426,25.6751808 C29.8709057,25.6970235 30.2924761,25.5572013 30.6235092,25.2832907 L30.2800305,24.7057683 C30.0330594,24.8942576 29.7319013,24.9979418 29.4213338,25.0014048 C28.873726,24.9570604 28.4518956,24.4993417 28.4518956,23.9494891 C28.4518956,23.3996365 28.873726,22.9419177 29.4213338,22.8975734 C29.7319013,22.9010364 30.0330594,23.0047206 30.2800305,23.1932098 L30.6235092,22.6156875 C30.2924761,22.3417769 29.8709057,22.2019547 29.4419426,22.2237973 C28.9757808,22.1973587 28.5200673,22.3687436 28.1866598,22.6958845 C27.8532523,23.0230255 27.6730197,23.4756338 27.6902013,23.9426138 L27.6902013,23.9563644 Z M34.3811659,23.9563644 L34.3811659,22.3200511 L33.6667303,22.3200511 L33.6667303,22.7188165 C33.4205946,22.4018496 33.0371257,22.2227491 32.6362942,22.2375479 C31.6878041,22.2375479 30.9189009,23.0070882 30.9189009,23.9563644 C30.9189009,24.9056405 31.6878041,25.6751808 32.6362942,25.6751808 C33.0371257,25.6899796 33.4205946,25.5108792 33.6667303,25.1939122 L33.6667303,25.5926776 L34.3811659,25.5926776 L34.3811659,23.9563644 Z M31.722641,23.9563644 C31.754411,23.4168858 32.2112194,23.001771 32.7508068,23.0220406 C33.2903941,23.0423103 33.7148249,23.4905291 33.7060984,24.0308733 C33.6973719,24.5712175 33.2586892,25.0054739 32.7187291,25.00828 C32.4437879,25.0117618 32.1798881,24.9001589 31.9907475,24.7004175 C31.8016068,24.5006761 31.7044158,24.2309503 31.722641,23.9563644 L31.722641,23.9563644 Z M23.1013262,22.2375479 C22.152836,22.2508377 21.3946975,23.0311517 21.4079763,23.9804278 C21.4212552,24.9297039 22.2009231,25.6884707 23.1494132,25.6751808 C23.6435895,25.7005674 24.1295658,25.5412997 24.5130236,25.2282886 L24.1695449,24.6988931 C23.8983211,24.916591 23.5623096,25.0375586 23.2146742,25.0426564 C22.7236255,25.0849221 22.288168,24.7283435 22.2323252,24.2382503 L24.6710238,24.2382503 L24.6710238,23.9632396 C24.6710238,22.9319497 24.0321534,22.2444231 23.1116306,22.2444231 L23.1013262,22.2375479 Z M23.1013262,22.8769476 C23.3172379,22.8723406 23.5261303,22.9537889 23.6820246,23.1033652 C23.837919,23.2529414 23.9280375,23.4583858 23.9325446,23.6744784 L22.2151512,23.6744784 C22.2410249,23.2154937 22.6285203,22.8612676 23.0875871,22.8769476 L23.1013262,22.8769476 Z M41,23.9632396 L41,21 L40.3130426,21 L40.3130426,22.7188165 C40.066907,22.4018496 39.6834381,22.2227491 39.2826066,22.2375479 C38.3341164,22.2375479 37.5652132,23.0070882 37.5652132,23.9563644 C37.5652132,24.9056405 38.3341164,25.6751808 39.2826066,25.6751808 C39.6834381,25.6899796 40.066907,25.5108792 40.3130426,25.1939122 L40.3130426,25.5926776 L41,25.5926776 L41,23.9632396 Z M38.358649,23.9632396 C38.390419,23.4237611 38.8472274,23.0086462 39.3868148,23.0289159 C39.9264021,23.0491856 40.3508329,23.4974044 40.3421064,24.0377486 C40.3333799,24.5780927 39.8946972,25.0123491 39.3547371,25.0151553 C39.0797959,25.018637 38.8158962,24.9070342 38.6267555,24.7072927 C38.4376148,24.5075513 38.3404238,24.2378256 38.358649,23.9632396 L38.358649,23.9632396 Z M14.2361416,23.9632396 L14.2361416,22.3200511 L13.5217059,22.3200511 L13.5217059,22.7188165 C13.2755703,22.4018496 12.8921014,22.2227491 12.4912699,22.2375479 C11.5427797,22.2375479 10.7738765,23.0070882 10.7738765,23.9563644 C10.7738765,24.9056405 11.5427797,25.6751808 12.4912699,25.6751808 C12.8921014,25.6899796 13.2755703,25.5108792 13.5217059,25.1939122 L13.5217059,25.5926776 L14.2361416,25.5926776 L14.2361416,23.9632396 Z M11.5776166,23.9632396 C11.6093867,23.4237611 12.0661951,23.0086462 12.6057825,23.0289159 C13.1453698,23.0491856 13.5698006,23.4974044 13.5610741,24.0377486 C13.5523475,24.5780927 13.1136648,25.0123491 12.5737048,25.0151553 C12.2975787,25.0205807 12.0318417,24.9098286 11.8411777,24.7098576 C11.6505136,24.5098865 11.5524102,24.2390379 11.5707471,23.9632396 L11.5776166,23.9632396 Z" id="Shape" fill="#231F20"></path>
            <g id="Group" transform="translate(12.000000, 5.000000)">
                <rect id="Rectangle-path" fill="#FF5F00" x="8.01965812" y="1.47606838" width="5.92307692" height="10.6446154"></rect>
                <path d="M8.3957265,6.79931624 C8.39351195,4.72181906 9.34696208,2.75875191 10.9811966,1.47606838 C8.20577254,-0.705118468 4.22015231,-0.387409742 1.82532268,2.2059174 C-0.569506954,4.79924454 -0.569506954,8.79750759 1.82532268,11.3908347 C4.22015231,13.9841619 8.20577254,14.3018706 10.9811966,12.1206838 C9.34748199,10.8384074 8.3940901,8.87615357 8.3957265,6.79931624 L8.3957265,6.79931624 Z" id="_Path_" fill="#EB001B"></path>
                <path d="M21.934188,6.79931624 C21.9341276,9.39106298 20.4542501,11.7552676 18.1230651,12.8878433 C15.7918801,14.020419 13.0186579,13.7225272 10.9811966,12.1206838 C12.6141983,10.8373188 13.567662,8.87532584 13.567662,6.79837607 C13.567662,4.7214263 12.6141983,2.75943333 10.9811966,1.47606838 C13.0186579,-0.125775095 15.7918801,-0.423666866 18.1230651,0.708908843 C20.4542501,1.84148455 21.9341276,4.20568916 21.934188,6.7974359 L21.934188,6.79931624 Z" id="Shape" fill="#F79E1B"></path>
            </g>
        </g>
    </g>
</svg>