<?xml version="1.0" encoding="UTF-8"?>
<svg width="46px" height="30px" viewBox="0 0 46 30" version="1.1" xmlns="http://www.w3.org/2000/svg" xmlns:xlink="http://www.w3.org/1999/xlink">
    <!-- Generator: Sketch 43.2 (39069) - http://www.bohemiancoding.com/sketch -->
    <title>paypal-2</title>
    <desc>Created with Sketch.</desc>
    <defs></defs>
    <g id="Page-1" stroke="none" stroke-width="1" fill="none" fill-rule="evenodd">
        <g id="paypal-2" fill-rule="nonzero">
            <g id="Group-3" transform="translate(2.000000, 9.000000)">
                <g id="Group-2" transform="translate(12.510638, 2.680851)">
                    <path d="M20.1457021,2.27693617 C20.0205957,3.108 19.3914894,3.108 18.7838298,3.108 L18.438,3.108 L18.6810638,1.55489362 C18.6953617,1.46106383 18.7757872,1.3913617 18.8687234,1.3913617 L19.0277872,1.3913617 C19.4415319,1.3913617 19.8320426,1.3913617 20.034,1.62906383 C20.1528511,1.77204255 20.1894894,1.98293617 20.1439149,2.27514894 L20.1457021,2.27693617 Z M19.8811915,0.105446809 L17.5890638,0.105446809 C17.4326809,0.105446809 17.2986383,0.221617021 17.2745106,0.378 L16.349617,6.31876596 C16.3317447,6.43493617 16.4211064,6.54217021 16.5372766,6.54217021 L17.7141702,6.54217021 C17.8249787,6.54217021 17.9179149,6.46174468 17.9348936,6.3527234 L18.1967234,4.66825532 C18.2235319,4.51187234 18.3557872,4.39659574 18.5121702,4.39659574 L19.2377872,4.39659574 C20.748,4.39659574 21.618383,3.65757447 21.8471489,2.19382979 C21.9490213,1.554 21.8498298,1.05 21.5540426,0.698808511 C21.2251915,0.310978723 20.6470213,0.105446809 19.8802979,0.105446809 L19.8811915,0.105446809 Z" id="Shape" fill="#009CDF"></path>
                    <path d="M3.79965957,2.27693617 C3.67455319,3.108 3.04634043,3.108 2.43868085,3.108 L2.09017021,3.108 L2.33144681,1.55489362 C2.34753191,1.46106383 2.42706383,1.3913617 2.52178723,1.3913617 L2.68085106,1.3913617 C3.09459574,1.3913617 3.48510638,1.3913617 3.68706383,1.62906383 C3.80680851,1.77204255 3.84344681,1.98293617 3.79787234,2.27514894 L3.79965957,2.27693617 Z M3.53514894,0.105446809 L1.24391489,0.105446809 C1.0866383,0.105446809 0.953489362,0.221617021 0.929361702,0.378 L0.00268085106,6.31787234 C-0.0151914894,6.43404255 0.0741702128,6.5412766 0.190340426,6.5412766 L1.28680851,6.5412766 C1.44408511,6.5412766 1.57723404,6.42510638 1.6013617,6.26961702 L1.85157447,4.6673617 C1.87570213,4.51097872 2.00974468,4.39570213 2.16612766,4.39570213 L2.89174468,4.39570213 C4.40195745,4.39570213 5.27234043,3.65668085 5.50110638,2.19293617 C5.60208511,1.55310638 5.50378723,1.04910638 5.20621277,0.697914894 C4.88093617,0.310085106 4.30365957,0.104553191 3.53514894,0.104553191 L3.53514894,0.105446809 Z" id="Shape" fill="#003087"></path>
                    <path d="M8.85574468,4.40821277 C8.74851064,5.04268085 8.25165957,5.46714894 7.61719149,5.46714894 C7.29906383,5.46714894 7.0452766,5.36438298 6.87995745,5.16778723 C6.71642553,4.97387234 6.65655319,4.69685106 6.70659574,4.38855319 C6.80489362,3.76302128 7.31068085,3.3233617 7.93621277,3.3233617 C8.24897872,3.3233617 8.50097872,3.42791489 8.66897872,3.62540426 C8.83608511,3.82468085 8.90131915,4.10348936 8.85395745,4.41 L8.85574468,4.40821277 Z M10.3838298,2.24834043 L9.2873617,2.24834043 C9.19353191,2.24834043 9.114,2.31804255 9.09970213,2.41187234 L9.05055319,2.72017021 L8.97370213,2.60757447 C8.736,2.25906383 8.20697872,2.14289362 7.67795745,2.14289362 C6.46531915,2.14289362 5.42961702,3.07225532 5.22944681,4.3733617 C5.12221277,5.02302128 5.27234043,5.64408511 5.63693617,6.07748936 C5.97204255,6.47604255 6.45012766,6.64046809 7.01846809,6.64046809 C7.99608511,6.64046809 8.53761702,6.006 8.53761702,6.006 L8.4893617,6.31519149 C8.47148936,6.4313617 8.56085106,6.53859574 8.67702128,6.53859574 L9.66625532,6.53859574 C9.8226383,6.53859574 9.95578723,6.42242553 9.98080851,6.26604255 L10.572383,2.46817021 C10.5902553,2.352 10.5008936,2.24476596 10.3829362,2.24476596 L10.3838298,2.24834043 Z" id="Shape" fill="#003087"></path>
                    <path d="M25.2,4.40821277 C25.0954468,5.04268085 24.5977021,5.46714894 23.9623404,5.46714894 C23.6442128,5.46714894 23.3904255,5.36438298 23.226,5.16778723 C23.0651489,4.97387234 23.0025957,4.69685106 23.0562128,4.38855319 C23.1545106,3.76302128 23.6602979,3.3233617 24.2849362,3.3233617 C24.5977021,3.3233617 24.8497021,3.42791489 25.0177021,3.62540426 C25.1848085,3.82468085 25.2500426,4.10348936 25.2026809,4.41 L25.2,4.40821277 Z M26.730766,2.24834043 L25.6334043,2.24834043 C25.5395745,2.24834043 25.4591489,2.31804255 25.4457447,2.41187234 L25.3965957,2.72017021 L25.3197447,2.60757447 C25.0820426,2.25906383 24.551234,2.14289362 24.024,2.14289362 C22.8113617,2.14289362 21.7756596,3.07225532 21.5737021,4.3733617 C21.4691489,5.02302128 21.618383,5.64408511 21.9820851,6.07748936 C22.3154043,6.47604255 22.7952766,6.64046809 23.3627234,6.64046809 C24.3394468,6.64046809 24.8818723,6.006 24.8818723,6.006 L24.8327234,6.31519149 C24.8148511,6.4313617 24.9042128,6.53859574 25.0221702,6.53859574 L26.0105106,6.53859574 C26.1668936,6.53859574 26.3009362,6.42242553 26.3250638,6.26604255 L26.9184255,2.46817021 C26.9362979,2.352 26.8469362,2.24476596 26.730766,2.24476596 L26.730766,2.24834043 Z" id="Shape" fill="#009CDF"></path>
                    <path d="M16.2298723,2.25012766 L15.1271489,2.25012766 C15.0217021,2.25012766 14.921617,2.30195745 14.8635319,2.39042553 L13.3417021,4.65574468 L12.6982979,2.47889362 C12.6571915,2.34217021 12.5329787,2.24923404 12.3917872,2.24923404 L11.3078298,2.24923404 C11.1764681,2.24923404 11.0844255,2.37880851 11.1273191,2.50391489 L12.3426383,6.10787234 L11.1970213,7.73693617 C11.1076596,7.86561702 11.1970213,8.04255319 11.3534043,8.04255319 L12.4570213,8.04255319 C12.5615745,8.04255319 12.6589787,7.9907234 12.7188511,7.90404255 L16.3871489,2.5512766 C16.4747234,2.42438298 16.3844681,2.24923404 16.2298723,2.24923404" id="Shape" fill="#003087"></path>
                    <path d="M28.0238298,0.268085106 L27.0837447,6.31787234 C27.0658723,6.43404255 27.155234,6.5412766 27.2714043,6.5412766 L28.2186383,6.5412766 C28.3750213,6.5412766 28.5081702,6.42510638 28.5314043,6.26961702 L29.4625532,0.328851064 C29.4804255,0.212680851 29.3910638,0.105446809 29.2731064,0.105446809 L28.2114894,0.105446809 C28.1185532,0.105446809 28.0390213,0.175148936 28.0238298,0.268978723" id="Shape" fill="#009CDF"></path>
                </g>
                <g id="Group">
                    <path d="M3.70054932,2.90267118 C3.72378337,2.75481818 3.81671954,2.6333675 3.94345068,2.57264217 C4.00153578,2.54465571 4.06490135,2.52934236 4.1324913,2.52934236 L6.86988395,2.52934236 C7.19410445,2.52934236 7.496147,2.55046422 7.77284333,2.59587621 C7.85205029,2.60854932 7.92861702,2.62333462 8.00359961,2.64023211 C8.07752611,2.65712959 8.15039652,2.67561122 8.22009865,2.69673308 L8.32412379,2.72841586 C8.45983172,2.77488395 8.58656286,2.82874468 8.70273308,2.89052611 C8.84002515,2.00710445 8.70273308,1.40565957 8.23013153,0.861243714 C7.70842166,0.262439072 6.76849903,0.00528046422 5.56560928,0.00528046422 L2.07311025,0.00528046422 C1.82704062,0.00528046422 1.61793424,0.18587234 1.57938685,0.431413926 L0.126731141,9.75301741 C0.0982166344,9.93783366 0.238676983,10.1036402 0.422437137,10.1036402 L2.57897872,10.1036402 L3.70160542,2.90267118" id="Shape" fill="#253667"></path>
                    <path d="M8.22907544,0.861243714 C7.70842166,0.262439072 6.76849903,0.00528046422 5.56560928,0.00528046422 L2.07311025,0.00528046422 C1.82704062,0.00528046422 1.61793424,0.18587234 1.57938685,0.431413926 L0.126731141,9.75301741 C0.0982166344,9.93783366 0.238676983,10.1036402 0.422437137,10.1036402 L2.57897872,10.1036402 L2.43112573,11.0572921 C2.4057795,11.2183462 2.52828627,11.363559 2.68986847,11.363559 L4.50634816,11.363559 C4.7217911,11.363559 4.90502321,11.2051451 4.93934623,10.9907582 L4.95624371,10.897294 L5.29947389,8.70273308 L5.32059574,8.58286654 C5.35439072,8.36795164 5.53709478,8.20953772 5.75253772,8.20953772 L6.02448162,8.20953772 C7.78498839,8.20953772 9.16318956,7.48611412 9.56608897,5.39505029 C9.73506383,4.52166151 9.64740812,3.7924294 9.20173694,3.27969632 C9.06761315,3.12392263 8.90075048,2.99560735 8.70537331,2.89105416 C8.8394971,2.00710445 8.70220503,1.40565957 8.22907544,0.861243714 Z" id="Shape" fill="#009CDF"></path>
                    <path d="M8.70220503,2.89052611 C8.8394971,2.00710445 8.70220503,1.40565957 8.22907544,0.861243714 C7.70842166,0.262439072 6.76849903,0.00528046422 5.56560928,0.00528046422 L2.07311025,0.00528046422 C1.82704062,0.00528046422 1.61793424,0.18587234 1.57938685,0.431413926 L0.126731141,9.75301741 C0.0982166344,9.93783366 0.238676983,10.1036402 0.422437137,10.1036402 L2.57897872,10.1036402 L3.12075435,6.63173501 L3.10491296,6.73945648 C3.14187621,6.49391489 3.3499265,6.31332302 3.59599613,6.31332302 L4.62040619,6.31332302 C6.63226306,6.31332302 8.20848162,5.48693037 8.6689381,3.09646422 C8.68266731,3.025706 8.69428433,2.95705996 8.70484526,2.88947002" id="Shape" fill="#003087"></path>
                </g>
            </g>
        </g>
    </g>
</svg>