<?xml version="1.0" encoding="UTF-8"?>
<svg width="46px" height="30px" viewBox="0 0 46 30" version="1.1" xmlns="http://www.w3.org/2000/svg" xmlns:xlink="http://www.w3.org/1999/xlink">
    <!-- Generator: Sketch 43.2 (39069) - http://www.bohemiancoding.com/sketch -->
    <title>paypal</title>
    <desc>Created with Sketch.</desc>
    <defs></defs>
    <g id="Page-1" stroke="none" stroke-width="1" fill="none" fill-rule="evenodd">
        <g id="paypal" fill-rule="nonzero">
            <g id="Group-2" transform="translate(5.000000, 10.000000)">
                <path d="M24.7984,2.8028 C24.6444,3.8258 23.87,3.8258 23.122,3.8258 L22.6963,3.8258 L22.9955,1.914 C23.0131,1.7985 23.1121,1.7127 23.2265,1.7127 L23.4223,1.7127 C23.9316,1.7127 24.4123,1.7127 24.6609,2.0053 C24.8072,2.1813 24.8523,2.4409 24.7962,2.8006 L24.7984,2.8028 Z M24.4728,0.1298 L21.6513,0.1298 C21.4588,0.1298 21.2938,0.2728 21.2641,0.4653 L20.1256,7.7781 C20.1036,7.9211 20.2136,8.0531 20.3566,8.0531 L21.8053,8.0531 C21.9417,8.0531 22.0561,7.9541 22.077,7.8199 L22.3993,5.7464 C22.4323,5.5539 22.5951,5.412 22.7876,5.412 L23.6808,5.412 C25.5398,5.412 26.6112,4.5023 26.8928,2.7005 C27.0182,1.9129 26.8961,1.2925 26.532,0.8602 C26.1272,0.3828 25.4155,0.1298 24.4717,0.1298 L24.4728,0.1298 Z" id="Shape" fill="#009CDF"></path>
                <path d="M4.6772,2.8028 C4.5232,3.8258 3.7499,3.8258 3.0019,3.8258 L2.5729,3.8258 L2.8699,1.914 C2.8897,1.7985 2.9876,1.7127 3.1042,1.7127 L3.3,1.7127 C3.8093,1.7127 4.29,1.7127 4.5386,2.0053 C4.686,2.1813 4.7311,2.4409 4.675,2.8006 L4.6772,2.8028 Z M4.3516,0.1298 L1.5312,0.1298 C1.3376,0.1298 1.1737,0.2728 1.144,0.4653 L0.0033,7.777 C-0.0187,7.92 0.0913,8.052 0.2343,8.052 L1.584,8.052 C1.7776,8.052 1.9415,7.909 1.9712,7.7176 L2.2792,5.7453 C2.3089,5.5528 2.4739,5.4109 2.6664,5.4109 L3.5596,5.4109 C5.4186,5.4109 6.49,4.5012 6.7716,2.6994 C6.8959,1.9118 6.7749,1.2914 6.4086,0.8591 C6.0082,0.3817 5.2976,0.1287 4.3516,0.1287 L4.3516,0.1298 Z" id="Shape" fill="#003087"></path>
                <path d="M10.901,5.4263 C10.769,6.2073 10.1574,6.7298 9.3764,6.7298 C8.9848,6.7298 8.6724,6.6033 8.4689,6.3613 C8.2676,6.1226 8.1939,5.7816 8.2555,5.4021 C8.3765,4.6321 8.9991,4.0909 9.7691,4.0909 C10.1541,4.0909 10.4643,4.2196 10.6711,4.4627 C10.8768,4.708 10.9571,5.0512 10.8988,5.4285 L10.901,5.4263 Z M12.782,2.7676 L11.4323,2.7676 C11.3168,2.7676 11.2189,2.8534 11.2013,2.9689 L11.1408,3.3484 L11.0462,3.2098 C10.7536,2.7808 10.1024,2.6378 9.4512,2.6378 C7.9585,2.6378 6.6836,3.7818 6.4372,5.3834 C6.3052,6.1831 6.49,6.9476 6.9388,7.4811 C7.3513,7.9717 7.9398,8.1741 8.6394,8.1741 C9.8428,8.1741 10.5094,7.3931 10.5094,7.3931 L10.45,7.7737 C10.428,7.9167 10.538,8.0487 10.681,8.0487 L11.8987,8.0487 C12.0912,8.0487 12.2551,7.9057 12.2859,7.7132 L13.0141,3.0382 C13.0361,2.8952 12.9261,2.7632 12.7809,2.7632 L12.782,2.7676 Z" id="Shape" fill="#003087"></path>
                <path d="M31.02,5.4263 C30.8913,6.2073 30.2786,6.7298 29.4965,6.7298 C29.1049,6.7298 28.7925,6.6033 28.5901,6.3613 C28.3921,6.1226 28.3151,5.7816 28.3811,5.4021 C28.5021,4.6321 29.1247,4.0909 29.8936,4.0909 C30.2786,4.0909 30.5888,4.2196 30.7956,4.4627 C31.0013,4.708 31.0816,5.0512 31.0233,5.4285 L31.02,5.4263 Z M32.9043,2.7676 L31.5535,2.7676 C31.438,2.7676 31.339,2.8534 31.3225,2.9689 L31.262,3.3484 L31.1674,3.2098 C30.8748,2.7808 30.2214,2.6378 29.5724,2.6378 C28.0797,2.6378 26.8048,3.7818 26.5562,5.3834 C26.4275,6.1831 26.6112,6.9476 27.0589,7.4811 C27.4692,7.9717 28.0599,8.1741 28.7584,8.1741 C29.9607,8.1741 30.6284,7.3931 30.6284,7.3931 L30.5679,7.7737 C30.5459,7.9167 30.6559,8.0487 30.8011,8.0487 L32.0177,8.0487 C32.2102,8.0487 32.3752,7.9057 32.4049,7.7132 L33.1353,3.0382 C33.1573,2.8952 33.0473,2.7632 32.9043,2.7632 L32.9043,2.7676 Z" id="Shape" fill="#009CDF"></path>
                <path d="M19.9782,2.7698 L18.6208,2.7698 C18.491,2.7698 18.3678,2.8336 18.2963,2.9425 L16.423,5.731 L15.631,3.0514 C15.5804,2.8831 15.4275,2.7687 15.2537,2.7687 L13.9194,2.7687 C13.7577,2.7687 13.6444,2.9282 13.6972,3.0822 L15.1932,7.5185 L13.783,9.5238 C13.673,9.6822 13.783,9.9 13.9755,9.9 L15.334,9.9 C15.4627,9.9 15.5826,9.8362 15.6563,9.7295 L20.1718,3.1405 C20.2796,2.9843 20.1685,2.7687 19.9782,2.7687" id="Shape" fill="#003087"></path>
                <path d="M34.496,0.33 L33.3388,7.777 C33.3168,7.92 33.4268,8.052 33.5698,8.052 L34.7358,8.052 C34.9283,8.052 35.0922,7.909 35.1208,7.7176 L36.267,0.4048 C36.289,0.2618 36.179,0.1298 36.0338,0.1298 L34.727,0.1298 C34.6126,0.1298 34.5147,0.2156 34.496,0.3311" id="Shape" fill="#009CDF"></path>
            </g>
        </g>
    </g>
</svg>