<?xml version="1.0" encoding="UTF-8"?>
<svg width="40px" height="40px" viewBox="0 0 40 40" version="1.1" xmlns="http://www.w3.org/2000/svg" xmlns:xlink="http://www.w3.org/1999/xlink" style="background: #DE2108;">
    <!-- Generator: Sketch 43.2 (39069) - http://www.bohemiancoding.com/sketch -->
    <title>pinterest</title>
    <desc>Created with Sketch.</desc>
    <defs></defs>
    <g id="Page-1" stroke="none" stroke-width="1" fill="none" fill-rule="evenodd">
        <g id="pinterest" fill="#FFFFFF">
            <path d="M7.27272727,19.9999044 C7.27272727,25.3917295 10.6271563,29.9970436 15.3617075,31.8514811 C15.2504412,30.8445406 15.1500722,29.3000044 15.4058699,28.2007244 C15.6371966,27.2073577 16.8984054,21.8744158 16.8984054,21.8744158 C16.8984054,21.8744158 16.5175765,21.1119934 16.5175765,19.9848013 C16.5175765,18.215056 17.5434438,16.8938171 18.8205203,16.8938171 C19.9064178,16.8938171 20.4310134,17.7090049 20.4310134,18.686695 C20.4310134,19.7787102 19.7356949,21.4111888 19.3768516,22.9241804 C19.0768916,24.1911245 20.0121399,25.2240654 21.2614955,25.2240654 C23.523527,25.2240654 25.2623012,22.8389145 25.2623012,19.3959695 C25.2623012,16.3485742 23.0727266,14.2180739 19.9461831,14.2180739 C16.324868,14.2180739 14.1993384,16.9341559 14.1993384,19.741239 C14.1993384,20.835166 14.6206972,22.0082412 15.1464398,22.6458236 C15.2504412,22.7718106 15.2657356,22.8823122 15.2347646,23.0107846 C15.1380279,23.4128343 14.9233338,24.2773463 14.8812743,24.454187 C14.8256412,24.6872344 14.6967865,24.7365586 14.4557096,24.6243364 C12.8660551,23.8844732 11.8721148,21.5604997 11.8721148,19.6938266 C11.8721148,15.6790649 14.789126,11.9919841 20.2815113,11.9919841 C24.6966021,11.9919841 28.127694,15.1380279 28.127694,19.3426306 C28.127694,23.7288534 25.3620967,27.258976 21.5234109,27.258976 C20.2337165,27.258976 19.0212584,26.5890844 18.6062085,25.7976028 C18.6062085,25.7976028 17.9680526,28.2276807 17.8133887,28.8230125 C17.5260464,29.9286014 16.7504327,31.3142678 16.2315726,32.1596619 C17.4224274,32.5282553 18.687842,32.7272727 19.9999044,32.7272727 C27.0289875,32.7272727 32.7272727,27.0289875 32.7272727,19.9999044 C32.7272727,12.9708213 27.0289875,7.27272727 19.9999044,7.27272727 C12.9708213,7.27272727 7.27272727,12.9708213 7.27272727,19.9999044 Z" id="Pinterest"></path>
        </g>
    </g>
</svg>