<?xml version="1.0" encoding="UTF-8"?>
<svg width="84px" height="14px" viewBox="0 0 84 14" version="1.1" xmlns="http://www.w3.org/2000/svg" xmlns:xlink="http://www.w3.org/1999/xlink">
    <!-- Generator: Sketch 43.2 (39069) - http://www.bohemiancoding.com/sketch -->
    <title>rating-empty</title>
    <desc>Created with Sketch.</desc>
    <defs></defs>
    <g id="Page-1" stroke="none" stroke-width="1" fill="none" fill-rule="evenodd">
        <g id="rating-empty" fill="#D8D8D8">
            <g id="Star-Empty">
                <polygon id="Star" points="7.5 11.1992188 3.09161061 13.5676275 3.9818339 8.64312146 0.367076128 5.18237254 5.32565377 4.50726917 7.5 0 9.67434623 4.50726917 14.6329239 5.18237254 11.0181661 8.64312146 11.9083894 13.5676275"></polygon>
            </g>
            <g id="Star-Empty" transform="translate(17.000000, 0.000000)">
                <polygon id="Star" points="7.5 11.1992188 3.09161061 13.5676275 3.9818339 8.64312146 0.367076128 5.18237254 5.32565377 4.50726917 7.5 0 9.67434623 4.50726917 14.6329239 5.18237254 11.0181661 8.64312146 11.9083894 13.5676275"></polygon>
            </g>
            <g id="Star-Empty" transform="translate(34.000000, 0.000000)">
                <polygon id="Star" points="7.5 11.1992188 3.09161061 13.5676275 3.9818339 8.64312146 0.367076128 5.18237254 5.32565377 4.50726917 7.5 0 9.67434623 4.50726917 14.6329239 5.18237254 11.0181661 8.64312146 11.9083894 13.5676275"></polygon>
            </g>
            <g id="Star-Empty" transform="translate(51.000000, 0.000000)">
                <polygon id="Star" points="7.5 11.1992188 3.09161061 13.5676275 3.9818339 8.64312146 0.367076128 5.18237254 5.32565377 4.50726917 7.5 0 9.67434623 4.50726917 14.6329239 5.18237254 11.0181661 8.64312146 11.9083894 13.5676275"></polygon>
            </g>
            <g id="Star-Empty" transform="translate(68.000000, 0.000000)">
                <polygon id="Star" points="7.5 11.1992188 3.09161061 13.5676275 3.9818339 8.64312146 0.367076128 5.18237254 5.32565377 4.50726917 7.5 0 9.67434623 4.50726917 14.6329239 5.18237254 11.0181661 8.64312146 11.9083894 13.5676275"></polygon>
            </g>
        </g>
    </g>
</svg>