<?xml version="1.0" encoding="UTF-8"?>
<svg width="24px" height="24px" viewBox="0 0 24 24" version="1.1" xmlns="http://www.w3.org/2000/svg" xmlns:xlink="http://www.w3.org/1999/xlink">
    <!-- Generator: Sketch 43.2 (39069) - http://www.bohemiancoding.com/sketch -->
    <title>search</title>
    <desc>Created with Sketch.</desc>
    <defs></defs>
    <g id="Page-1" stroke="none" stroke-width="1" fill="none" fill-rule="evenodd">
        <g id="search" fill="#FFFFFF">
            <path d="M16.829921,14.8280217 L23,20.4104741 L20.4104741,23 L14.8280217,16.829921 C13.3941857,17.861054 11.6350938,18.46833 9.73416498,18.46833 C4.91041886,18.46833 1,14.5579111 1,9.73416498 C1,4.91041886 4.91041886,1 9.73416498,1 C14.5579111,1 18.46833,4.91041886 18.46833,9.73416498 C18.46833,11.6350938 17.861054,13.3941857 16.829921,14.8280217 Z M9.73416498,16.1698655 C13.2885042,16.1698655 16.1698655,13.2885042 16.1698655,9.73416498 C16.1698655,6.17982573 13.2885042,3.29846447 9.73416498,3.29846447 C6.17982573,3.29846447 3.29846447,6.17982573 3.29846447,9.73416498 C3.29846447,13.2885042 6.17982573,16.1698655 9.73416498,16.1698655 Z" id="Path-2"></path>
        </g>
    </g>
</svg>