<?xml version="1.0" encoding="UTF-8"?>
<svg width="40px" height="40px" viewBox="0 0 40 40" version="1.1" xmlns="http://www.w3.org/2000/svg" xmlns:xlink="http://www.w3.org/1999/xlink" style="background: #2C4762;">
    <!-- Generator: Sketch 43.2 (39069) - http://www.bohemiancoding.com/sketch -->
    <title>tumblr</title>
    <desc>Created with Sketch.</desc>
    <defs></defs>
    <g id="Page-1" stroke="none" stroke-width="1" fill="none" fill-rule="evenodd">
        <g id="tumblr" fill="#FFFFFF">
            <path d="M22.7372727,32.6738182 C17.346,32.6738182 15.2981818,28.6978182 15.2981818,25.8889091 L15.2981818,17.5881818 L12.7272727,17.5881818 L12.7272727,14.3070909 C16.5798182,12.9185455 17.5076364,9.44272727 17.7252727,7.46236364 C17.7392727,7.32618182 17.8461818,7.27272727 17.9072727,7.27272727 L21.6287273,7.27272727 L21.6287273,13.7432727 L26.7107273,13.7432727 L26.7107273,17.5881818 L21.6096364,17.5881818 L21.6096364,25.4956364 C21.6274545,26.5532727 22.0067273,28.0016364 23.9463636,28.0016364 C23.982,28.0016364 24.0189091,28.0016364 24.0545455,28.0003636 C24.7290909,27.9825455 25.6327273,27.7865455 26.1049091,27.5612727 L27.3267273,31.1847273 C26.8672727,31.858 24.794,32.6407273 22.9281818,32.6725455 C22.8632727,32.6738182 22.8009091,32.6738182 22.7372727,32.6738182" id="tumblr_logo_white"></path>
        </g>
    </g>
</svg>