<?xml version="1.0" encoding="UTF-8"?>
<svg width="40px" height="40px" viewBox="0 0 40 40" version="1.1" xmlns="http://www.w3.org/2000/svg" xmlns:xlink="http://www.w3.org/1999/xlink" style="background: #00ACED;">
    <!-- Generator: Sketch 43.2 (39069) - http://www.bohemiancoding.com/sketch -->
    <title>twitter</title>
    <desc>Created with Sketch.</desc>
    <defs></defs>
    <g id="Page-1" stroke="none" stroke-width="1" fill="none" fill-rule="evenodd">
        <g id="twitter" fill="#FFFFFF">
            <path d="M33.7272727,12.4487273 C32.7908,12.8641455 31.7842,13.1449091 30.7279636,13.2710364 C31.8059636,12.6247455 32.6341273,11.6013455 33.0240909,10.3818182 C32.0149455,10.9803818 30.8973636,11.4148909 29.7077455,11.6490727 C28.7552364,10.6340727 27.398,10 25.8959273,10 C23.0119273,10 20.6735455,12.3381273 20.6735455,15.2221273 C20.6735455,15.6314364 20.7197455,16.0300545 20.8088364,16.4122545 C16.4685818,16.1944909 12.6204909,14.1153636 10.0448727,10.9558182 C9.59534545,11.7270909 9.33774545,12.6242364 9.33774545,13.5813273 C9.33774545,15.3931818 10.2597091,16.9916 11.6609818,17.9280727 C10.8049455,17.9009636 9.99969091,17.6660182 9.29561818,17.2749091 C9.29510909,17.2966727 9.29510909,17.3184364 9.29510909,17.3405818 C9.29510909,19.8707636 11.0952545,21.9814545 13.4842909,22.4612727 C13.0460909,22.5806545 12.5847273,22.6445455 12.1084727,22.6445455 C11.7719636,22.6445455 11.4447455,22.6117091 11.1259273,22.5507455 C11.7904182,24.6254182 13.7189818,26.1353818 16.0042909,26.1773818 C14.217,27.5781455 11.9652909,28.4130545 9.51847273,28.4130545 C9.09694545,28.4130545 8.68127273,28.3882364 8.27272727,28.34 C10.5838727,29.8217091 13.3288909,30.6864 16.2780545,30.6864 C25.8837091,30.6864 31.1366364,22.7288 31.1366364,15.8276909 C31.1366364,15.6012727 31.1314182,15.3761273 31.1213636,15.1521273 C32.1418364,14.4157273 33.0271455,13.4960545 33.7272727,12.4487273" id="Twitter"></path>
        </g>
    </g>
</svg>