<?xml version="1.0" encoding="UTF-8"?>
<svg width="40px" height="40px" viewBox="0 0 40 40" version="1.1" xmlns="http://www.w3.org/2000/svg" xmlns:xlink="http://www.w3.org/1999/xlink" style="background: #1AB7EA;">
    <!-- Generator: Sketch 43.2 (39069) - http://www.bohemiancoding.com/sketch -->
    <title>vimeo</title>
    <desc>Created with Sketch.</desc>
    <defs></defs>
    <g id="Page-1" stroke="none" stroke-width="1" fill="none" fill-rule="evenodd">
        <g id="vimeo" fill="#FFFFFF">
            <path d="M32.0338494,13.9540966 C31.9276276,16.3201447 30.3054055,19.5593406 27.1671831,23.6716842 C23.9224637,27.9656649 21.177207,30.1136364 18.9325139,30.1136364 C17.5408978,30.1136364 16.3639268,28.8062974 15.4021513,26.1904981 C14.7601421,23.7924953 14.1186833,21.3947728 13.4763989,18.99677 C12.7620158,16.382092 11.996448,15.0730711 11.1769438,15.0730711 C10.998348,15.0730711 10.3736755,15.4559667 9.30402714,16.2178337 L8.18181818,14.7451152 C9.35961473,13.6914515 10.5211753,12.6375075 11.6640232,11.5821621 C13.2347855,10.2002621 14.4147836,9.4728726 15.2007151,9.39943289 C17.0571206,9.21779574 18.2005189,10.5105589 18.6292588,13.2780027 C19.0929474,16.2643642 19.4143648,18.1213798 19.5940613,18.8482087 C20.1301239,21.3258179 20.7192973,22.5633612 21.3624073,22.5633612 C21.8613197,22.5633612 22.6120274,21.7600092 23.6126041,20.1521841 C24.6112545,18.5454801 25.1467667,17.322793 25.2188654,16.4824409 C25.361687,15.0954955 24.8261748,14.4006212 23.6126041,14.4006212 C23.0413177,14.4006212 22.4521443,14.5346067 21.8461845,14.7992139 C23.0193028,10.8870075 25.2598681,8.98682504 28.5670548,9.09530278 C31.0192382,9.16846219 32.1755703,10.7880601 32.0338494,13.9540966" id="Fill-3"></path>
        </g>
    </g>
</svg>