<?xml version="1.0" encoding="UTF-8"?>
<svg width="46px" height="30px" viewBox="0 0 46 30" version="1.1" xmlns="http://www.w3.org/2000/svg" xmlns:xlink="http://www.w3.org/1999/xlink">
    <!-- Generator: Sketch 43.2 (39069) - http://www.bohemiancoding.com/sketch -->
    <title>visa</title>
    <desc>Created with Sketch.</desc>
    <defs></defs>
    <g id="Page-1" stroke="none" stroke-width="1" fill="none" fill-rule="evenodd">
        <g id="visa" fill-rule="nonzero">
            <g transform="translate(6.000000, 10.000000)" id="Shape">
                <polyline fill="#0767B0" points="13.4163333 0.303722222 11.7516667 10.5373889 14.4161111 10.5373889 16.0813889 0.303722222"></polyline>
                <path d="M9.51133333,0.303111111 L6.97094444,7.34311111 L6.6715,5.82755556 L5.77438889,1.22588889 C5.77438889,1.22588889 5.665,0.303111111 4.51,0.303111111 L0.311666667,0.303111111 L0.262777778,0.476666667 C0.262777778,0.476666667 1.54733333,0.743722222 3.05066667,1.64816667 L5.36555556,10.5373889 L8.14,10.5373889 L12.3786667,0.303111111 L9.51133333,0.303111111 Z" fill="#0767B0"></path>
                <path d="M27.5354444,6.91777778 L28.9348889,3.08733333 L29.7232222,6.91716667 L27.5354444,6.91716667 L27.5354444,6.91777778 Z M30.4669444,10.5367778 L32.9132222,10.5367778 L30.7804444,0.303111111 L28.6397222,0.303111111 C27.6497222,0.303111111 27.4089444,1.067 27.4089444,1.067 L23.4367222,10.5367778 L26.2136111,10.5367778 L26.7697222,9.01694444 L30.1565,9.01694444 L30.4681667,10.5367778 L30.4669444,10.5367778 Z" fill="#0767B0"></path>
                <path d="M23.6426667,2.76466667 L24.0227778,0.5665 C24.0227778,0.5665 22.8494444,0.122222222 21.6272222,0.122222222 C20.3047778,0.121 17.1648889,0.6985 17.1648889,3.509 C17.1648889,6.15266667 20.8498889,6.18566667 20.8498889,7.57288889 C20.8498889,8.96194444 17.545,8.71322222 16.4535556,7.83811111 L16.0581667,10.1346667 C16.0581667,10.1346667 17.2467778,10.7133889 19.0648333,10.7133889 C20.8822778,10.7133889 23.6261667,9.77227778 23.6261667,7.2105 C23.6261667,4.54972222 19.9081667,4.30161111 19.9081667,3.14538889 C19.9081667,1.98794444 22.5023333,2.13705556 23.6420556,2.76527778" fill="#0767B0"></path>
                <path d="M6.67088889,5.82755556 L5.775,1.22588889 C5.775,1.22588889 5.665,0.303111111 4.51,0.303111111 L0.311666667,0.303111111 L0.262777778,0.477888889 C0.262777778,0.477888889 2.28188889,0.895888889 4.21666667,2.46216667 C6.06833333,3.95938889 6.67088889,5.82694444 6.67088889,5.82694444" fill="#F9A533"></path>
            </g>
        </g>
    </g>
</svg>