<?xml version="1.0" encoding="UTF-8"?>
<svg width="40px" height="40px" viewBox="0 0 40 40" version="1.1" xmlns="http://www.w3.org/2000/svg" xmlns:xlink="http://www.w3.org/1999/xlink" style="background: #E52D27;">
    <!-- Generator: Sketch 43.2 (39069) - http://www.bohemiancoding.com/sketch -->
    <title>youtube</title>
    <desc>Created with Sketch.</desc>
    <defs>
        <polyline id="path-1" points="0.00149439601 0.0143711083 25.4408468 0.0143711083 25.4408468 17.9063512 0.00149439601 17.9063512"></polyline>
    </defs>
    <g id="Page-1" stroke="none" stroke-width="1" fill="none" fill-rule="evenodd">
        <g id="youtube">
            <g id="YouTube" transform="translate(7.272727, 10.909091)">
                <mask id="mask-2" fill="white">
                    <use xlink:href="#path-1"></use>
                </mask>
                <g id="Clip-2"></g>
                <polyline id="Fill-1" fill="#DFDEDA" mask="url(#mask-2)" points="16.1212204 9.13838107 10.0927771 5.11285181 16.9669988 8.69940224 16.1212204 9.13838107"></polyline>
                <path d="M10.0939477,12.2610461 L10.0927771,5.11285181 L16.9669988,8.69940224 L10.0939477,12.2610461 L10.0939477,12.2610461 Z M24.1753923,1.34933998 C23.2079701,0.336064757 22.1235866,0.331033624 21.6263014,0.271731009 C18.0662267,0.0143711083 12.7259278,0.0143711083 12.7259278,0.0143711083 C12.7148692,0.0143711083 7.37469489,0.0143711083 3.81449564,0.271731009 C3.31718555,0.331033624 2.2332005,0.336064757 1.26542964,1.34933998 C0.5026401,2.12136986 0.254420922,3.87452055 0.254420922,3.87452055 C0.254420922,3.87452055 -2.04281037e-14,5.93330012 -2.04281037e-14,7.99205479 L-2.04281037e-14,9.92214197 C-2.04281037e-14,11.9808717 0.254420922,14.0396264 0.254420922,14.0396264 C0.254420922,14.0396264 0.5026401,15.792802 1.26542964,16.5648319 C2.2332005,17.578132 3.50443337,17.5460772 4.07063512,17.652279 C6.10592777,17.8474471 12.7204234,17.9078456 12.7204234,17.9078456 C12.7204234,17.9078456 18.0662267,17.8998007 21.6263014,17.6424658 C22.1235866,17.5831382 23.2079701,17.578132 24.1753923,16.5648319 C24.9382316,15.792802 25.1867995,14.0396264 25.1867995,14.0396264 C25.1867995,14.0396264 25.4408468,11.9808717 25.4408468,9.92214197 L25.4408468,7.99205479 C25.4408468,5.93330012 25.1867995,3.87452055 25.1867995,3.87452055 C25.1867995,3.87452055 24.9382316,2.12136986 24.1753923,1.34933998 Z" id="Fill-3" fill="#FFFFFF" mask="url(#mask-2)"></path>
            </g>
        </g>
    </g>
</svg>